<svg width="66" height="66" viewBox="0 0 66 66" fill="none" xmlns="http://www.w3.org/2000/svg">
<path d="M62.5917 25.9612L58.0294 25.1873C57.5542 23.6529 56.9431 22.1729 56.1963 20.7607L58.8848 16.9995C60.0254 15.3973 59.8489 13.2111 58.4503 11.8262L54.404 7.7798C53.6436 7.01941 52.6388 6.59848 51.5661 6.59848C50.7243 6.59848 49.9231 6.85647 49.2442 7.34529L45.4694 10.0338C44.003 9.25984 42.4686 8.62166 40.8799 8.14642L40.1196 3.6384C39.7937 1.6967 38.1235 0.284546 36.1547 0.284546H30.4382C28.4693 0.284546 26.7992 1.6967 26.4733 3.6384L25.6858 8.25504C24.165 8.73029 22.6849 9.35489 21.2728 10.1153L17.5387 7.42676C16.8598 6.93794 16.0451 6.67995 15.2033 6.67995C14.1306 6.67995 13.1122 7.10088 12.3654 7.86127L8.30545 11.9076C6.92046 13.2926 6.73036 15.4787 7.87094 17.081L10.5866 20.8965C9.83981 22.3222 9.24236 23.8023 8.78069 25.3366L4.27268 26.097C2.33097 26.4229 0.918823 28.093 0.918823 30.0619V35.7784C0.918823 37.7472 2.33097 39.4174 4.27268 39.7433L8.88932 40.5308C9.36456 42.0516 9.98917 43.5316 10.7496 44.9438L8.07462 48.6642C6.93404 50.2665 7.11056 52.4526 8.50913 53.8376L12.5555 57.8839C13.3159 58.6443 14.3207 59.0653 15.3934 59.0653C16.2352 59.0653 17.0363 58.8073 17.7153 58.3185L21.5308 55.6028C22.9022 56.3224 24.3415 56.9063 25.8215 57.368L26.5819 61.9303C26.9078 63.872 28.5779 65.2841 30.5468 65.2841H36.2769C38.2457 65.2841 39.9159 63.872 40.2418 61.9303L41.0157 57.368C42.5501 56.8927 44.0301 56.2817 45.4423 55.5349L49.2035 58.2234C49.8824 58.7122 50.6971 58.9702 51.539 58.9702C52.6116 58.9702 53.6164 58.5493 54.3768 57.7889L58.4232 53.7425C59.8082 52.3576 59.9983 50.1714 58.8577 48.5692L56.1692 44.7944C56.916 43.3687 57.5406 41.8886 58.0023 40.3679L62.5646 39.6075C64.5063 39.2816 65.9184 37.6115 65.9184 35.6426V29.9261C65.9456 27.9572 64.5334 26.2871 62.5917 25.9612ZM62.2794 35.6426C62.2794 35.8191 62.1572 35.9685 61.9807 35.9956L59.1293 36.4709L56.2778 36.9461C55.5582 37.0683 54.9879 37.5979 54.8113 38.2904C54.2954 40.2864 53.5078 42.2009 52.4487 43.9797C52.0821 44.6043 52.1092 45.3783 52.5302 45.9757L55.884 50.701C55.9791 50.8368 55.9655 51.0405 55.8433 51.1627L51.7969 55.209C51.7019 55.3041 51.6068 55.3176 51.539 55.3176C51.4575 55.3176 51.3896 55.2905 51.3353 55.2497C51.3353 55.2497 47.2075 52.3168 46.6236 51.8959C46.0397 51.475 45.2522 51.4478 44.6276 51.8144C42.8488 52.8735 40.9343 53.6611 38.9382 54.1771C38.2322 54.3536 37.7026 54.9374 37.594 55.6435L36.6299 61.3464C36.6028 61.5229 36.4534 61.6452 36.2769 61.6452H30.5604C30.3839 61.6452 30.2345 61.5229 30.2073 61.3464C30.2073 61.3464 29.3791 56.3632 29.2569 55.6435C29.1347 54.9239 27.9126 54.1771 27.9126 54.1771C27.9126 54.1771 24.0971 52.9007 22.3455 51.8959C22.0603 51.733 21.7345 51.6515 21.4221 51.6515C21.0555 51.6515 20.6753 51.7601 20.363 51.9909L15.6106 55.3719C15.5427 55.4127 15.4748 55.4398 15.4069 55.4398C15.3526 55.4398 15.244 55.4263 15.1489 55.3312L11.1026 51.2849C10.9804 51.1627 10.9668 50.9726 11.0619 50.8232L14.4021 46.1387C14.8231 45.5412 14.8502 44.7537 14.4836 44.1291C13.4245 42.3639 12.6098 40.4493 12.0938 38.4533C11.9037 37.7608 11.3334 37.2313 10.6274 37.1091L4.8837 36.1314C4.70719 36.1043 4.58498 35.9549 4.58498 35.7784V30.0619C4.58498 29.8854 4.70719 29.736 4.8837 29.7089L10.5459 28.7584C11.2655 28.6362 11.8494 28.1066 12.0259 27.4005C12.5283 25.4045 13.3023 23.4764 14.3478 21.6976C14.7144 21.073 14.6737 20.299 14.2528 19.7152L10.8718 14.9628C10.7767 14.827 10.7903 14.6233 10.9125 14.5011L14.9588 10.4547C15.0539 10.3597 15.1489 10.3461 15.2168 10.3461C15.2983 10.3461 15.3662 10.3733 15.4205 10.414L20.105 13.7543C20.7025 14.1752 21.49 14.2024 22.1146 13.8357C23.8798 12.7766 25.7944 11.9619 27.7904 11.446C28.4829 11.2559 29.0125 10.6856 29.1347 9.9795L30.1123 4.23585C30.1395 4.05933 30.2888 3.93712 30.4653 3.93712H36.1818C36.3583 3.93712 36.5077 4.05933 36.5349 4.23585L37.4853 9.89803C37.6076 10.6177 38.1371 11.2015 38.8432 11.3781C40.8935 11.894 42.8488 12.6952 44.6683 13.7679C45.2929 14.1345 46.0669 14.1073 46.6643 13.6864L51.3489 10.319C51.4167 10.2782 51.4846 10.2511 51.5525 10.2511C51.6068 10.2511 51.7155 10.2646 51.8105 10.3597L55.8569 14.406C55.9791 14.5282 55.9927 14.7183 55.8976 14.8677L52.5438 19.5794C52.1228 20.1633 52.0957 20.9508 52.4623 21.5754C53.5214 23.3542 54.3089 25.2687 54.8249 27.2647C55.0014 27.9708 55.5853 28.5004 56.2914 28.609L61.9943 29.5731C62.1708 29.6002 62.293 29.7496 62.293 29.9261V35.6426H62.2794Z" fill="white"/>
<path d="M33.4254 18.7508C25.6857 18.7508 19.399 25.0376 19.399 32.7772C19.399 40.5169 25.6857 46.8037 33.4254 46.8037C41.1651 46.8037 47.4519 40.5169 47.4519 32.7772C47.4519 25.0376 41.1651 18.7508 33.4254 18.7508ZM33.4254 43.1375C27.7089 43.1375 23.0651 38.4937 23.0651 32.7772C23.0651 27.0607 27.7089 22.4169 33.4254 22.4169C39.1419 22.4169 43.7857 27.0607 43.7857 32.7772C43.7857 38.4937 39.1419 43.1375 33.4254 43.1375Z" fill="white"/>
</svg>
