<svg width="65" height="65" viewBox="0 0 65 65" fill="none" xmlns="http://www.w3.org/2000/svg">
<g clip-path="url(#clip0_2_43)">
<path d="M62.7338 23.6213L35.1905 0.964307C34.4089 0.321436 33.4545 0 32.5001 0C31.5456 0 30.5912 0.321436 29.8097 0.964307L21.4234 7.86282V6.54164C21.4234 5.37222 20.4754 4.42415 19.306 4.42415H9.14904C7.97962 4.42415 7.03155 5.37222 7.03155 6.54164V19.7016L2.26648 23.6213C0.885732 24.7572 0.366946 26.6379 0.970291 28.3209C1.49416 29.7825 2.76635 30.8217 4.26299 31.0698V60.765C4.26299 63.104 6.15914 65 8.49798 65H23.1006C25.4395 65 27.3356 63.104 27.3356 60.765V49.9695C27.3356 49.219 27.6599 48.7717 27.8111 48.6572H37.189C37.3402 48.7717 37.6645 49.219 37.6645 49.9695V60.765C37.6645 63.104 39.5605 65 41.8995 65H56.5021C58.8411 65 60.7371 63.104 60.7371 60.765V31.07C62.2339 30.822 63.5059 29.7827 64.0298 28.3211C64.6333 26.6379 64.1145 24.7573 62.7338 23.6213ZM11.2665 8.65928H17.1885V11.3467L11.2665 16.218V8.65928ZM56.5023 26.892V60.7651H41.8995V49.9696C41.8995 46.9059 39.8253 44.4223 37.2667 44.4223H27.7336C25.1749 44.4223 23.1008 46.906 23.1008 49.9696V60.7651H8.49798V26.892H4.95683L32.5001 4.23499L60.0433 26.892H56.5023Z" fill="white"/>
</g>
<defs>
<clipPath id="clip0_2_43">
<rect width="65" height="65" fill="white"/>
</clipPath>
</defs>
</svg>
