<svg width="65" height="66" viewBox="0 0 65 66" fill="none" xmlns="http://www.w3.org/2000/svg">
<path d="M63.9822 14.2965H35.7541L39.5934 11.6344C39.8676 11.4443 40.0312 11.1318 40.0312 10.7979V2.28695V1.2015C40.0312 0.639478 39.5757 0.183716 39.0135 0.183716H25.4437C24.8815 0.183716 24.4259 0.639351 24.4259 1.2015V2.28708V10.7981C24.4259 11.1451 24.6028 11.4682 24.895 11.6553L29.0217 14.2965H1.01778C0.455635 14.2965 0 14.7521 0 15.3142V64.1661C0 64.7281 0.455508 65.1837 1.01778 65.1837H32.5H63.9822C64.5444 65.1837 65 64.7281 65 64.1659V15.3142C65 14.7521 64.5445 14.2965 63.9822 14.2965ZM31.4822 56.0918H6.92072V49.9854H31.4823L31.4822 56.0918ZM31.4822 42.5219H6.92072V36.4155H31.4823L31.4822 42.5219ZM31.4822 28.9519H6.92072V22.8455H31.4823L31.4822 28.9519ZM31.4822 20.81H5.90294C5.34079 20.81 4.88516 21.2657 4.88516 21.8278V29.9698C4.88516 30.5319 5.34066 30.9876 5.90294 30.9876H31.4822V34.3801H5.90294C5.34079 34.3801 4.88516 34.8357 4.88516 35.3978V43.5399C4.88516 44.1019 5.34066 44.5576 5.90294 44.5576H31.4822V47.9501H5.90294C5.34079 47.9501 4.88516 48.4057 4.88516 48.9679V57.1099C4.88516 57.6719 5.34066 58.1277 5.90294 58.1277H31.4822V63.1485H2.03544V16.3319H31.4822V20.81ZM32.4774 14.0914L26.4615 10.2411V2.28708V2.21928H37.9959V2.28708V10.2653L32.4774 14.0914ZM33.5178 22.8455H38.5387V28.9519H33.5178V22.8455ZM33.5178 36.4155H47.7662V42.5219H33.5178V36.4155ZM33.5178 49.9854H55.9081V56.0918H33.5178V49.9854ZM62.9646 63.1483H33.5178V58.1274H56.9259C57.4881 58.1274 57.9437 57.6718 57.9437 57.1096V48.9676C57.9437 48.4056 57.4882 47.9498 56.9259 47.9498H33.5178V44.5574H48.7839C49.346 44.5574 49.8017 44.1018 49.8017 43.5396V35.3976C49.8017 34.8356 49.3462 34.3798 48.7839 34.3798H33.5178V30.9874H39.5564C40.1186 30.9874 40.5742 30.5317 40.5742 29.9696V21.8276C40.5742 21.2656 40.1187 20.8098 39.5564 20.8098H33.5178V16.3318H62.9646V63.1483Z" fill="white"/>
</svg>
