<svg width="66" height="66" viewBox="0 0 66 66" fill="none" xmlns="http://www.w3.org/2000/svg">
<path fill-rule="evenodd" clip-rule="evenodd" d="M58.0295 25.1873L62.5919 25.9612C64.5336 26.2871 65.9457 27.9572 65.9185 29.9261V35.6426C65.9185 37.6115 64.5064 39.2816 62.5647 39.6075L58.0024 40.3679C57.5407 41.8886 56.9161 43.3687 56.1693 44.7944L58.8578 48.5692C59.9984 50.1714 59.8083 52.3576 58.4233 53.7425L54.3769 57.7889C53.6166 58.5493 52.6117 58.9702 51.5391 58.9702C50.6972 58.9702 49.8825 58.7122 49.2036 58.2234L45.4424 55.5349C44.0302 56.2817 42.5502 56.8927 41.0158 57.368L40.2419 61.9303C39.916 63.872 38.2459 65.2841 36.277 65.2841H30.5469C28.5781 65.2841 26.9079 63.872 26.582 61.9303L25.8217 57.368C24.3416 56.9063 22.9023 56.3224 21.5309 55.6028L17.7154 58.3185C17.0365 58.8073 16.2353 59.0653 15.3935 59.0653C14.3208 59.0653 13.316 58.6443 12.5556 57.8839L8.50925 53.8376C7.11068 52.4526 6.93416 50.2665 8.07474 48.6642L10.7497 44.9438C9.98929 43.5316 9.36469 42.0516 8.88944 40.5308L4.2728 39.7433C2.33109 39.4174 0.918945 37.7472 0.918945 35.7784V30.0619C0.918945 28.093 2.33109 26.4229 4.2728 26.097L8.78082 25.3366C9.24248 23.8023 9.83993 22.3222 10.5867 20.8965L7.87106 17.081C6.73048 15.4787 6.92058 13.2926 8.30557 11.9076L12.3655 7.86127C13.1123 7.10088 14.1307 6.67995 15.2034 6.67995C16.0452 6.67995 16.8599 6.93794 17.5389 7.42676L21.2729 10.1153C22.6851 9.35489 24.1651 8.73029 25.6859 8.25504L26.4734 3.6384C26.7993 1.6967 28.4694 0.284546 30.4383 0.284546H36.1548C38.1237 0.284546 39.7938 1.6967 40.1197 3.6384L40.8801 8.14642C42.4687 8.62166 44.0031 9.25984 45.4696 10.0338L49.2443 7.34529C49.9232 6.85647 50.7244 6.59848 51.5662 6.59848C52.6389 6.59848 53.6437 7.01941 54.4041 7.7798L58.4504 11.8262C59.849 13.2111 60.0255 15.3973 58.885 16.9995L56.1964 20.7607C56.9432 22.1729 57.5543 23.6529 58.0295 25.1873ZM23.0652 32.7772C23.0652 38.4937 27.709 43.1375 33.4255 43.1375C39.142 43.1375 43.7858 38.4937 43.7858 32.7772C43.7858 27.0607 39.142 22.4169 33.4255 22.4169C27.709 22.4169 23.0652 27.0607 23.0652 32.7772Z" fill="white"/>
</svg>
