<svg width="66" height="66" viewBox="0 0 66 66" fill="none" xmlns="http://www.w3.org/2000/svg">
<path d="M64.9407 14.2964H36.7125L40.5519 11.6343C40.8261 11.4443 40.9897 11.1317 40.9897 10.7979V2.28692V1.20147C40.9897 0.639448 40.5342 0.183685 39.9719 0.183685H26.4022C25.84 0.183685 25.3844 0.639321 25.3844 1.20147V2.28704V10.7981C25.3844 11.1451 25.5612 11.4682 25.8535 11.6553L29.9802 14.2964H1.97627C1.41412 14.2964 0.958496 14.7521 0.958496 15.3142V64.166C0.958496 64.7281 1.414 65.1837 1.97627 65.1837H33.4585H64.9407C65.5028 65.1837 65.9585 64.728 65.9585 64.1659V15.3142C65.9585 14.7521 65.503 14.2964 64.9407 14.2964ZM32.4407 56.0918H7.87921V49.9854H32.4408L32.4407 56.0918ZM32.4407 42.5219H7.87921V36.4155H32.4408L32.4407 42.5219ZM32.4407 28.9519H7.87921V22.8454H32.4408L32.4407 28.9519ZM34.4763 22.8454H39.4971V28.9519H34.4763V22.8454ZM34.4763 36.4155H48.7247V42.5219H34.4763V36.4155ZM34.4763 49.9854H56.8666V56.0918H34.4763V49.9854Z" fill="white"/>
</svg>
